{
  "accessors": [
    {
      "bufferView": 2,
      "componentType": 5126,
      "count": 4,
      "max": [
        167.02890014648438,
        167.02890014648438,
        0.0
      ],
      "min": [
        -167.02890014648438,
        -167.02890014648438,
        0.0
      ],
      "type": "VEC3"
    },
    {
      "bufferView": 2,
      "byteOffset": 48,
      "componentType": 5126,
      "count": 4,
      "max": [
        0.0,
        0.0,
        1.0
      ],
      "min": [
        0.0,
        0.0,
        1.0
      ],
      "type": "VEC3"
    },
    {
      "bufferView": 1,
      "componentType": 5126,
      "count": 4,
      "max": [
        1.0,
        1.0
      ],
      "min": [
        2.9802322387695313e-08,
        2.9802322387695313e-08
      ],
      "type": "VEC2"
    },
    {
      "bufferView": 0,
      "componentType": 5125,
      "count": 6,
      "type": "SCALAR"
    },
    {
      "bufferView": 2,
      "byteOffset": 96,
      "componentType": 5126,
      "count": 10186,
      "max": [
        127.68385314941406,
        77.45916748046875,
        85.67146301269531
      ],
      "min": [
        -127.68384552001953,
        -77.45913696289063,
        3.820159912109375
      ],
      "type": "VEC3"
    },
    {
      "bufferView": 2,
      "byteOffset": 122328,
      "componentType": 5126,
      "count": 10186,
      "max": [
        1.0,
        1.0,
        0.9999988675117493
      ],
      "min": [
        -1.0,
        -0.9999821782112122,
        -1.0
      ],
      "type": "VEC3"
    },
    {
      "bufferView": 1,
      "byteOffset": 32,
      "componentType": 5126,
      "count": 10186,
      "max": [
        0.9990856647491455,
        0.9993733763694763
      ],
      "min": [
        0.0005000000237487257,
        0.0005000000237487257
      ],
      "type": "VEC2"
    },
    {
      "bufferView": 0,
      "byteOffset": 24,
      "componentType": 5125,
      "count": 44898,
      "type": "SCALAR"
    },
    {
      "bufferView": 2,
      "byteOffset": 244560,
      "componentType": 5126,
      "count": 558,
      "max": [
        121.91116333007813,
        61.84342956542969,
        5.217008590698242
      ],
      "min": [
        -120.4825210571289,
        -71.57717895507813,
        -2.86102294921875e-05
      ],
      "type": "VEC3"
    },
    {
      "bufferView": 2,
      "byteOffset": 251256,
      "componentType": 5126,
      "count": 558,
      "max": [
        0.9857175350189209,
        0.9707422256469727,
        -0.16840508580207825
      ],
      "min": [
        -0.9857178330421448,
        -0.9707430601119995,
        -1.0
      ],
      "type": "VEC3"
    },
    {
      "bufferView": 1,
      "byteOffset": 81520,
      "componentType": 5126,
      "count": 558,
      "max": [
        0.5881224274635315,
        0.2757849395275116
      ],
      "min": [
        0.5396077632904053,
        0.23287400603294373
      ],
      "type": "VEC2"
    },
    {
      "bufferView": 0,
      "byteOffset": 179616,
      "componentType": 5125,
      "count": 1620,
      "type": "SCALAR"
    }
  ],
  "asset": {
    "extras": {
      "author": "MADE.COM (https://sketchfab.com/made-it)",
      "license": "CC-BY-NC-4.0 (http://creativecommons.org/licenses/by-nc/4.0/)",
      "source": "https://sketchfab.com/3d-models/milner-rhf-corner-storage-arctic-blue-9c324e6b5ff444c387d278d7a3413864",
      "title": "Milner RHF Corner Storage,  Arctic Blue"
    },
    "generator": "Sketchfab-15.25.0",
    "version": "2.0"
  },
  "bufferViews": [
    {
      "buffer": 0,
      "byteLength": 186096,
      "name": "floatBufferViews",
      "target": 34963
    },
    {
      "buffer": 0,
      "byteLength": 85984,
      "byteOffset": 186096,
      "byteStride": 8,
      "name": "floatBufferViews",
      "target": 34962
    },
    {
      "buffer": 0,
      "byteLength": 257952,
      "byteOffset": 272080,
      "byteStride": 12,
      "name": "floatBufferViews",
      "target": 34962
    }
  ],
  "buffers": [
    {
      "byteLength": 530032,
      "uri": "scene.bin"
    }
  ],
  "extensionsUsed": [
    "KHR_materials_specular"
  ],
  "images": [
    {
      "uri": "textures/FLOOR_baseColor.png"
    },
    {
      "uri": "textures/FABRIC_GRANITE_GREY_baseColor.jpeg"
    }
  ],
  "materials": [
    {
      "alphaMode": "BLEND",
      "doubleSided": true,
      "name": "FLOOR",
      "pbrMetallicRoughness": {
        "baseColorFactor": [
          1.0,
          1.0,
          1.0,
          0.995617378
        ],
        "baseColorTexture": {
          "index": 0
        },
        "metallicFactor": 0.0,
        "roughnessFactor": 0.8929713596
      }
    },
    {
      "doubleSided": true,
      "extensions": {
        "KHR_materials_specular": {
          "specularColorFactor": [
            1.0,
            1.0,
            1.0
          ],
          "specularFactor": 0.1053734756
        }
      },
      "name": "FABRIC_GRANITE_GREY",
      "pbrMetallicRoughness": {
        "baseColorTexture": {
          "index": 1
        },
        "metallicFactor": 0.0,
        "roughnessFactor": 0.9084269017
      }
    },
    {
      "doubleSided": true,
      "extensions": {
        "KHR_materials_specular": {
          "specularColorFactor": [
            1.0,
            1.0,
            1.0
          ],
          "specularFactor": 0.245617378
        }
      },
      "name": "LEGS_BROWN",
      "pbrMetallicRoughness": {
        "baseColorTexture": {
          "index": 1
        },
        "metallicFactor": 0.0,
        "roughnessFactor": 0.6263338414999999
      }
    }
  ],
  "meshes": [
    {
      "name": "Plane001_FLOOR_0",
      "primitives": [
        {
          "attributes": {
            "NORMAL": 1,
            "POSITION": 0,
            "TEXCOORD_0": 2
          },
          "indices": 3,
          "material": 0,
          "mode": 4
        }
      ]
    },
    {
      "name": "Milner_Right_Hand_Facing_Corner_Storage_Sofa_Bed_with_Foam_Mattress_FABRIC_GRANITE_GREY_0",
      "primitives": [
        {
          "attributes": {
            "NORMAL": 5,
            "POSITION": 4,
            "TEXCOORD_0": 6
          },
          "indices": 7,
          "material": 1,
          "mode": 4
        }
      ]
    },
    {
      "name": "Milner_Right_Hand_Facing_Corner_Storage_Sofa_Bed_with_Foam_Mattress_LEGS_BROWN_0",
      "primitives": [
        {
          "attributes": {
            "NORMAL": 9,
            "POSITION": 8,
            "TEXCOORD_0": 10
          },
          "indices": 11,
          "material": 2,
          "mode": 4
        }
      ]
    }
  ],
  "nodes": [
    {
      "children": [
        1
      ],
      "matrix": [
        1.0,
        0.0,
        0.0,
        0.0,
        0.0,
        2.220446049250313e-16,
        -1.0,
        0.0,
        0.0,
        1.0,
        2.220446049250313e-16,
        0.0,
        0.0,
        0.0,
        0.0,
        1.0
      ],
      "name": "Sketchfab_model"
    },
    {
      "children": [
        2
      ],
      "matrix": [
        1.0,
        0.0,
        0.0,
        0.0,
        0.0,
        0.0,
        1.0,
        0.0,
        0.0,
        -1.0,
        0.0,
        0.0,
        0.0,
        0.0,
        0.0,
        1.0
      ],
      "name": "Milner RHF Corner Storage Sofa Bed with Foam Mattress.FBX"
    },
    {
      "children": [
        3,
        6
      ],
      "name": "RootNode"
    },
    {
      "children": [
        4
      ],
      "matrix": [
        1.0,
        0.0,
        0.0,
        0.0,
        0.0,
        2.220446049250313e-16,
        -1.0,
        0.0,
        0.0,
        1.0,
        2.220446049250313e-16,
        0.0,
        -21.78875732421875,
        4.9591064453125e-05,
        -28.068603515625,
        1.0
      ],
      "name": "Plane001"
    },
    {
      "children": [
        5
      ],
      "matrix": [
        -1.0,
        -0.0,
        -0.0,
        0.0,
        -0.0,
        1.0,
        1.2246467991473532e-16,
        0.0,
        -0.0,
        -1.2246467991473532e-16,
        1.0,
        0.0,
        0.0,
        0.0,
        -4.999999873689376e-05,
        1.0
      ],
      "name": "Object_4"
    },
    {
      "mesh": 0,
      "name": "Plane001_FLOOR_0"
    },
    {
      "children": [
        7,
        8
      ],
      "matrix": [
        1.0,
        0.0,
        0.0,
        0.0,
        0.0,
        2.220446049250313e-16,
        -1.0,
        0.0,
        0.0,
        1.0,
        2.220446049250313e-16,
        0.0,
        -21.78875732421875,
        3.814697265625e-06,
        -28.068603515625,
        1.0
      ],
      "name": "Milner_Right_Hand_Facing_Corner_Storage_Sofa_Bed_with_Foam_Mattress"
    },
    {
      "mesh": 1,
      "name": "Milner_Right_Hand_Facing_Corner_Storage_Sofa_Bed_with_Foam_Mattress_FABRIC_GRANITE_GREY_0"
    },
    {
      "mesh": 2,
      "name": "Milner_Right_Hand_Facing_Corner_Storage_Sofa_Bed_with_Foam_Mattress_LEGS_BROWN_0"
    }
  ],
  "samplers": [
    {
      "magFilter": 9729,
      "minFilter": 9987,
      "wrapS": 10497,
      "wrapT": 10497
    }
  ],
  "scene": 0,
  "scenes": [
    {
      "name": "Sketchfab_Scene",
      "nodes": [
        0
      ]
    }
  ],
  "textures": [
    {
      "sampler": 0,
      "source": 0
    },
    {
      "sampler": 0,
      "source": 1
    }
  ]
}
