{
  "accessors": [
    {
      "bufferView": 2,
      "componentType": 5126,
      "count": 64,
      "max": [
        0.5867353081703186,
        0.15818491578102112,
        0.017043687403202057
      ],
      "min": [
        -0.11300241947174072,
        -0.1554669439792633,
        -0.021120361983776093
      ],
      "type": "VEC3"
    },
    {
      "bufferView": 2,
      "byteOffset": 768,
      "componentType": 5126,
      "count": 64,
      "max": [
        1.0,
        1.0,
        1.0
      ],
      "min": [
        -1.0,
        -1.0,
        -1.0
      ],
      "type": "VEC3"
    },
    {
      "bufferView": 1,
      "componentType": 5126,
      "count": 64,
      "max": [
        0.875,
        1.0
      ],
      "min": [
        0.125,
        0.25
      ],
      "type": "VEC2"
    },
    {
      "bufferView": 0,
      "componentType": 5125,
      "count": 108,
      "type": "SCALAR"
    },
    {
      "bufferView": 2,
      "byteOffset": 1536,
      "componentType": 5126,
      "count": 6563,
      "max": [
        0.1049649715423584,
        0.12539514899253845,
        0.025486743077635765
      ],
      "min": [
        -0.1049775704741478,
        -0.1253890097141266,
        -0.003339742310345173
      ],
      "type": "VEC3"
    },
    {
      "bufferView": 2,
      "byteOffset": 80292,
      "componentType": 5126,
      "count": 6563,
      "max": [
        1.0,
        1.0,
        1.0
      ],
      "min": [
        -1.0,
        -1.0,
        -0.17343862354755402
      ],
      "type": "VEC3"
    },
    {
      "bufferView": 1,
      "byteOffset": 512,
      "componentType": 5126,
      "count": 6563,
      "max": [
        0.7901103496551514,
        0.9151104092597961
      ],
      "min": [
        0.20988985896110535,
        0.3375096619129181
      ],
      "type": "VEC2"
    },
    {
      "bufferView": 0,
      "byteOffset": 432,
      "componentType": 5125,
      "count": 31008,
      "type": "SCALAR"
    },
    {
      "bufferView": 2,
      "byteOffset": 159048,
      "componentType": 5126,
      "count": 166,
      "max": [
        0.040002014487981796,
        0.11767172068357468,
        0.04167458787560463
      ],
      "min": [
        -0.04000195860862732,
        -0.11957152932882309,
        -0.014460483565926552
      ],
      "type": "VEC3"
    },
    {
      "bufferView": 2,
      "byteOffset": 161040,
      "componentType": 5126,
      "count": 166,
      "max": [
        1.0,
        0.997246265411377,
        0.9995635747909546
      ],
      "min": [
        -1.0,
        -0.9967440962791443,
        -0.9999624490737915
      ],
      "type": "VEC3"
    },
    {
      "bufferView": 1,
      "byteOffset": 53016,
      "componentType": 5126,
      "count": 166,
      "max": [
        0.8683037757873535,
        1.0
      ],
      "min": [
        0.125,
        0.0
      ],
      "type": "VEC2"
    },
    {
      "bufferView": 0,
      "byteOffset": 124464,
      "componentType": 5125,
      "count": 324,
      "type": "SCALAR"
    },
    {
      "bufferView": 2,
      "byteOffset": 163032,
      "componentType": 5126,
      "count": 166,
      "max": [
        0.040002014487981796,
        0.11767172068357468,
        0.04167458787560463
      ],
      "min": [
        -0.04000195860862732,
        -0.11957152932882309,
        -0.014460483565926552
      ],
      "type": "VEC3"
    },
    {
      "bufferView": 2,
      "byteOffset": 165024,
      "componentType": 5126,
      "count": 166,
      "max": [
        1.0,
        0.997246265411377,
        0.9995635747909546
      ],
      "min": [
        -1.0,
        -0.9967440962791443,
        -0.9999624490737915
      ],
      "type": "VEC3"
    },
    {
      "bufferView": 1,
      "byteOffset": 54344,
      "componentType": 5126,
      "count": 166,
      "max": [
        0.8683037757873535,
        1.0
      ],
      "min": [
        0.125,
        0.0
      ],
      "type": "VEC2"
    },
    {
      "bufferView": 0,
      "byteOffset": 125760,
      "componentType": 5125,
      "count": 324,
      "type": "SCALAR"
    },
    {
      "bufferView": 2,
      "byteOffset": 167016,
      "componentType": 5126,
      "count": 166,
      "max": [
        0.040002014487981796,
        0.11767172068357468,
        0.04167458787560463
      ],
      "min": [
        -0.04000195860862732,
        -0.11957152932882309,
        -0.014460483565926552
      ],
      "type": "VEC3"
    },
    {
      "bufferView": 2,
      "byteOffset": 169008,
      "componentType": 5126,
      "count": 166,
      "max": [
        1.0,
        0.997246265411377,
        0.9995635747909546
      ],
      "min": [
        -1.0,
        -0.9967440962791443,
        -0.9999624490737915
      ],
      "type": "VEC3"
    },
    {
      "bufferView": 1,
      "byteOffset": 55672,
      "componentType": 5126,
      "count": 166,
      "max": [
        0.8683037757873535,
        1.0
      ],
      "min": [
        0.125,
        0.0
      ],
      "type": "VEC2"
    },
    {
      "bufferView": 0,
      "byteOffset": 127056,
      "componentType": 5125,
      "count": 324,
      "type": "SCALAR"
    },
    {
      "bufferView": 2,
      "byteOffset": 171000,
      "componentType": 5126,
      "count": 166,
      "max": [
        0.040002014487981796,
        0.11767172068357468,
        0.04167458787560463
      ],
      "min": [
        -0.04000195860862732,
        -0.11957152932882309,
        -0.014460483565926552
      ],
      "type": "VEC3"
    },
    {
      "bufferView": 2,
      "byteOffset": 172992,
      "componentType": 5126,
      "count": 166,
      "max": [
        1.0,
        0.997246265411377,
        0.9995635747909546
      ],
      "min": [
        -1.0,
        -0.9967440962791443,
        -0.9999624490737915
      ],
      "type": "VEC3"
    },
    {
      "bufferView": 1,
      "byteOffset": 57000,
      "componentType": 5126,
      "count": 166,
      "max": [
        0.8683037757873535,
        1.0
      ],
      "min": [
        0.125,
        0.0
      ],
      "type": "VEC2"
    },
    {
      "bufferView": 0,
      "byteOffset": 128352,
      "componentType": 5125,
      "count": 324,
      "type": "SCALAR"
    }
  ],
  "asset": {
    "extras": {
      "author": "bhagathgoud (https://sketchfab.com/bhagathgoud)",
      "license": "CC-BY-4.0 (http://creativecommons.org/licenses/by/4.0/)",
      "source": "https://sketchfab.com/3d-models/electrical-switch-board-power-socket-bf57fb8705f4478c899db3f3c4a74596",
      "title": "Electrical Switch Board / Power Socket"
    },
    "generator": "Sketchfab-14.20.0",
    "version": "2.0"
  },
  "bufferViews": [
    {
      "buffer": 0,
      "byteLength": 129648,
      "name": "floatBufferViews",
      "target": 34963
    },
    {
      "buffer": 0,
      "byteLength": 58328,
      "byteOffset": 129648,
      "byteStride": 8,
      "name": "floatBufferViews",
      "target": 34962
    },
    {
      "buffer": 0,
      "byteLength": 174984,
      "byteOffset": 187976,
      "byteStride": 12,
      "name": "floatBufferViews",
      "target": 34962
    }
  ],
  "buffers": [
    {
      "byteLength": 362960,
      "uri": "scene.bin"
    }
  ],
  "materials": [
    {
      "doubleSided": true,
      "name": "Switch_Board",
      "pbrMetallicRoughness": {
        "baseColorFactor": [
          0.8464433773127846,
          0.8464433773127846,
          0.8464433773127846,
          1.0
        ],
        "metallicFactor": 0.0,
        "roughnessFactor": 0.25
      }
    }
  ],
  "meshes": [
    {
      "name": "Object_0",
      "primitives": [
        {
          "attributes": {
            "NORMAL": 1,
            "POSITION": 0,
            "TEXCOORD_0": 2
          },
          "indices": 3,
          "material": 0,
          "mode": 4
        }
      ]
    },
    {
      "name": "Object_1",
      "primitives": [
        {
          "attributes": {
            "NORMAL": 5,
            "POSITION": 4,
            "TEXCOORD_0": 6
          },
          "indices": 7,
          "material": 0,
          "mode": 4
        }
      ]
    },
    {
      "name": "Object_2",
      "primitives": [
        {
          "attributes": {
            "NORMAL": 9,
            "POSITION": 8,
            "TEXCOORD_0": 10
          },
          "indices": 11,
          "material": 0,
          "mode": 4
        }
      ]
    },
    {
      "name": "Object_3",
      "primitives": [
        {
          "attributes": {
            "NORMAL": 13,
            "POSITION": 12,
            "TEXCOORD_0": 14
          },
          "indices": 15,
          "material": 0,
          "mode": 4
        }
      ]
    },
    {
      "name": "Object_4",
      "primitives": [
        {
          "attributes": {
            "NORMAL": 17,
            "POSITION": 16,
            "TEXCOORD_0": 18
          },
          "indices": 19,
          "material": 0,
          "mode": 4
        }
      ]
    },
    {
      "name": "Object_5",
      "primitives": [
        {
          "attributes": {
            "NORMAL": 21,
            "POSITION": 20,
            "TEXCOORD_0": 22
          },
          "indices": 23,
          "material": 0,
          "mode": 4
        }
      ]
    }
  ],
  "nodes": [
    {
      "children": [
        1
      ],
      "matrix": [
        0.4106351137161255,
        0.0,
        0.0,
        0.0,
        0.0,
        9.117931159344239e-17,
        -0.4106351137161255,
        0.0,
        0.0,
        0.4106351137161255,
        9.117931159344239e-17,
        0.0,
        0.0,
        0.0,
        0.0,
        1.0
      ],
      "name": "Sketchfab_model"
    },
    {
      "children": [
        2
      ],
      "name": "root"
    },
    {
      "children": [
        3,
        5,
        7,
        9,
        11,
        13
      ],
      "matrix": [
        1.0,
        0.0,
        0.0,
        0.0,
        0.0,
        2.220446049250313e-16,
        1.0,
        0.0,
        0.0,
        -1.0,
        2.220446049250313e-16,
        0.0,
        0.0,
        0.0,
        0.0,
        1.0
      ],
      "name": "GLTF_SceneRootNode"
    },
    {
      "children": [
        4
      ],
      "matrix": [
        1.0,
        0.0,
        0.0,
        0.0,
        0.0,
        1.0,
        0.0,
        0.0,
        0.0,
        0.0,
        1.0,
        0.0,
        -0.23957911133766174,
        0.0550684928894043,
        0.02164369821548462,
        1.0
      ],
      "name": "Board_0"
    },
    {
      "mesh": 0,
      "name": "Object_4"
    },
    {
      "children": [
        6
      ],
      "matrix": [
        1.0,
        0.0,
        0.0,
        0.0,
        0.0,
        1.0,
        0.0,
        0.0,
        0.0,
        0.0,
        1.0,
        0.0,
        -0.20916739106178284,
        0.0533747673034668,
        0.02899034321308136,
        1.0
      ],
      "name": "Port_1"
    },
    {
      "mesh": 1,
      "name": "Object_6"
    },
    {
      "children": [
        8
      ],
      "matrix": [
        1.0,
        0.0,
        0.0,
        0.0,
        0.0,
        1.0,
        0.0,
        0.0,
        0.0,
        0.0,
        1.0,
        0.0,
        -0.02916041761636734,
        0.05266427993774414,
        0.04044540971517563,
        1.0
      ],
      "name": "Switch_2"
    },
    {
      "mesh": 2,
      "name": "Object_8"
    },
    {
      "children": [
        10
      ],
      "matrix": [
        1.0,
        0.0,
        0.0,
        0.0,
        0.0,
        1.0,
        0.0,
        0.0,
        0.0,
        0.0,
        1.0,
        0.0,
        0.07093723863363266,
        0.05266427993774414,
        0.040445417165756226,
        1.0
      ],
      "name": "Switch.001_3"
    },
    {
      "mesh": 3,
      "name": "Object_10"
    },
    {
      "children": [
        12
      ],
      "matrix": [
        1.0,
        0.0,
        0.0,
        0.0,
        0.0,
        1.0,
        0.0,
        0.0,
        0.0,
        0.0,
        1.0,
        0.0,
        0.17110928893089294,
        0.05266427993774414,
        0.040445417165756226,
        1.0
      ],
      "name": "Switch.002_4"
    },
    {
      "mesh": 4,
      "name": "Object_12"
    },
    {
      "children": [
        14
      ],
      "matrix": [
        1.0,
        0.0,
        0.0,
        0.0,
        0.0,
        1.0,
        0.0,
        0.0,
        0.0,
        0.0,
        1.0,
        0.0,
        0.27120694518089294,
        0.05266427993774414,
        0.040445417165756226,
        1.0
      ],
      "name": "Switch.003_5"
    },
    {
      "mesh": 5,
      "name": "Object_14"
    }
  ],
  "scene": 0,
  "scenes": [
    {
      "name": "Sketchfab_Scene",
      "nodes": [
        0
      ]
    }
  ]
}
